M48
INCH
T01C0.0150
T02C0.1180
T03C0.0300
T04C0.0400
T05C0.0320
T06C0.0380
%
T01
X+010659Y-001052
X+005060Y+006650
X+001389Y+006533
X-006360Y-000630
X+000920Y+005810
X-004460Y-001901
X-004736Y+000017
X-005713Y+001241
X-008632Y+002311
X+010722Y-001693
X+001701Y-002496
X+000197Y-001740
X-003511Y+001332
X-001723Y+001332
X-000177Y+003042
X-006214Y+005856
X-004498Y-002667
X-003850Y-001720
X-004283Y-001327
X-008557Y-001235
X-005205Y-003780
X+006270Y+006940
X-001175Y+001736
X-005720Y+002680
X-006188Y-001961
X-000958Y+003686
X-005526Y+005530
X-007084Y+000790
X-004080Y+005500
X-005209Y+000957
X-008481Y+003904
X+005520Y+007180
X-005473Y+004724
X+000694Y-000843
X+003700Y-001715
X-006317Y+004349
X+000548Y-001322
X+004440Y-001705
X-006290Y-001300
X-005720Y-005430
X-007116Y+001840
X-003714Y-005471
X+004819Y-005645
X+004800Y-007440
X+007400Y-002970
X+007764Y-000649
X+003480Y-004346
X+006722Y+007206
X+008300Y+002000
X+008346Y+001398
X+007743Y+002832
X+008311Y+006346
X-002710Y-005470
X-002410Y-005210
X-003072Y-003405
X-009400Y-000394
X-009770Y-003323
X-006725Y-004901
X+002750Y-002300
X-000187Y-002790
X+002374Y+006742
X-006810Y+002145
X+001346Y+006064
X+000454Y+003542
X+000610Y+001970
X-004052Y+003964
X-000996Y+004524
X+000580Y+007154
X-002328Y+003322
X-002760Y+002510
X-007862Y+003406
X-008480Y+007094
X-004610Y+005250
X+000750Y-003310
X-001820Y-004030
X-001041Y-004833
X-000070Y-006000
X-001999Y+005510
T02
X-010944Y+006850
X+012283Y+006850
X-010944Y-006535
X+012283Y-006535
T03
X-004100Y+006810
X-002100Y+006810
X-007180Y-005860
X-007980Y-005860
X-008780Y-005860
X+010856Y-002309
X+010856Y-000538
T04
X-011080Y+001020
X-010080Y+001020
X-011080Y+000020
X-010080Y+000020
X-011080Y-000980
X-010080Y-000980
X-000950Y-006630
X-001950Y-006630
X-002950Y-006630
X-003950Y-006630
X-004950Y-006630
X-005950Y-006630
X-010562Y-002484
X-010562Y-003484
X-010562Y-004484
X-011104Y+004627
X-011104Y+003627
X-011104Y+002627
X+009190Y-004460
X+012750Y-004452
X+012770Y+001447
X+011470Y+001450
X+010470Y+001450
X+009190Y+001445
X+009220Y-005620
X+009220Y-006620
T05
X-000318Y-000456
X-001106Y-000062
X-000318Y+000330
X-001106Y+000724
T06
X-009940Y+003910
X-009940Y+002910
M30
