M48
INCH
T01C0.0150
T02C0.1180
T03C0.0300
T04C0.0400
T05C0.0320
T06C0.0380
%
T01
X+008442Y+001837
X+008440Y+001340
X+010642Y+000505
X+010370Y+006916
X+009314Y+005912
X+002092Y+001966
X+005060Y+006650
X+002374Y+006742
X+001389Y+006533
X+001346Y+006064
X-000248Y+002827
X-000731Y-005436
X-001770Y-005436
X-002747Y-005442
X-004774Y-005339
X+002240Y-005500
X-005480Y-003780
X-000415Y-004817
X-000620Y+006860
X-006360Y-000630
X+000784Y-005067
X+000141Y-002774
X+000920Y+005810
X+000600Y+000834
X-005720Y+002680
X-006682Y+005748
X-005490Y+005730
X+006927Y+007113
X-004052Y+003964
X-003059Y+003452
X+000750Y-003310
X-001392Y-003194
X+003186Y-002276
X+002322Y-004356
X+000070Y+003730
X+006270Y+006940
X+005520Y+007180
X-006810Y+002145
X-007116Y+001840
X+005005Y-001705
X+000548Y-001322
X-003116Y+001941
X-006317Y+004349
X-002240Y+002490
X-002590Y+004445
X-002760Y+002510
X+007786Y-002709
X+005440Y-004367
X+007323Y-001115
X+010704Y-000135
X+006396Y-005513
X-006290Y-001300
X-002760Y+000780
X+001701Y-002496
X+000197Y-001740
X-003180Y+000750
X-003456Y+001656
X-002286Y+000783
X-002632Y+002140
X-005473Y+004724
X+004067Y-001565
X+000694Y-000843
X-004498Y-002667
X-008557Y-001235
X-004283Y-001327
X-003850Y-001720
X-004460Y-001901
X-006430Y-002005
X-004736Y+000017
X-005209Y+000957
X+000151Y-004100
X-006725Y-004901
X-009770Y-003323
X-005713Y+001241
X-009400Y-000394
X-007084Y+000790
X-007862Y+003406
X-008475Y+006794
X-004464Y+005443
X-008354Y+003643
T02
X-010944Y+006850
X+012283Y+006850
X-010944Y-006535
X+012283Y-006535
T03
X-003709Y+006806
X-001709Y+006806
X-006900Y-005850
X-007700Y-005850
X-008500Y-005850
X+010838Y-000751
X+010838Y+001019
T04
X-011080Y+001020
X-010080Y+001020
X-011080Y+000020
X-010080Y+000020
X-011080Y-000980
X-010080Y-000980
X-000236Y-006653
X-001236Y-006653
X-002236Y-006653
X-003236Y-006653
X-004236Y-006653
X-005236Y-006653
X-010562Y-002484
X-010562Y-003484
X-010562Y-004484
X-011104Y+004627
X-011104Y+003627
X-011104Y+002627
X+009172Y-002901
X+012733Y-002894
X+012753Y+003005
X+010452Y+003008
X+011452Y+003008
X+009172Y+003003
X+010502Y-002901
X+011502Y-002901
T05
X-000318Y-000456
X-001106Y-000062
X-000318Y+000330
X-001106Y+000724
T06
X-010030Y+003910
X-010020Y+002910
M30
