M48
INCH
T01C0.0150
T02C0.1180
T03C0.1120
T04C0.0300
T05C0.0400
T06C0.0275
T07C0.0320
%
T01
X-008130Y+013740
X-005630Y+013990
X+003870Y+007240
X+003870Y+008240
X-008380Y+011990
X-008880Y+007240
X-011130Y+012490
X-009630Y+012490
X-003880Y+011740
X-002630Y+011740
X-005130Y+006490
X-006380Y+006490
X-008130Y+003990
X-005568Y+012369
X+001870Y+002740
X-007560Y+006230
X-004780Y+014050
X-008310Y+013240
X-002880Y+013240
X-008880Y+011490
X-006880Y+013740
X-009279Y+012986
X+000172Y+005925
X-007240Y+007847
X-004824Y+005913
X-002630Y+008300
X-009380Y+008490
X-008880Y+009240
X-008380Y+010240
X-004130Y+006490
X-004880Y+003740
X-006630Y+003990
X+000870Y+013740
X+002958Y+013646
X+002958Y+012574
X+007705Y+012575
X-003880Y+012240
X-003380Y+009740
X-006930Y+014680
X-002401Y+014165
X+003370Y+006740
X+000620Y+006490
X-003790Y+008213
X+003620Y+004240
X+002589Y+009814
X+002881Y+003778
X-004617Y+001115
X+004030Y+003500
X+003480Y+003150
X+004688Y+006361
X+004430Y+004670
X-003380Y+010240
X-002350Y+010220
X-001380Y+010990
X-002880Y+009740
X+000076Y+003714
X-003370Y+003580
X-003420Y+007350
X-005874Y+007701
X-003418Y+007844
X-005152Y+007841
X-002660Y+005190
X-005263Y+009002
X-002130Y+004740
X+002373Y+003810
X+001630Y+003240
X+001252Y+003680
X+000550Y+009450
T02
X-010824Y+014090
X+012403Y+014090
X-010824Y+000704
X+012403Y+000704
T03
X+007929Y+007311
X+010803Y+007311
X+009386Y+009122
T04
X-003410Y+013920
X-001410Y+013920
X+009896Y+012161
X+009096Y+012161
X+008296Y+012161
T05
X-011076Y+008270
X-010076Y+008270
X-011076Y+007270
X-010076Y+007270
X-011076Y+006270
X-010076Y+006270
X+000710Y+014405
X+001710Y+014405
X+002710Y+014405
X+003710Y+014405
X+004710Y+014405
X+005710Y+014405
X-010442Y+004755
X-010442Y+003755
X-010442Y+002755
X-010444Y+011867
X-010444Y+010867
X-010444Y+009867
X+007679Y+004562
X+011222Y+004562
X+011260Y+010470
X+001694Y+012633
X+000694Y+012633
X+007679Y+010468
X+007330Y+002510
X+007330Y+001510
X+007330Y+000510
X-001150Y+000430
X-000150Y+000430
X+000850Y+000430
X+003070Y+000420
X+004070Y+000420
X+005070Y+000420
T06
X+006314Y+011590
X+005330Y+011590
X-000699Y+011530
X-001683Y+011530
T07
X+001287Y+006656
X+000500Y+007050
X+001287Y+007443
X+000500Y+007837
M30
