M48
INCH
T01C0.0150
T02C0.1180
T03C0.0300
T04C0.0400
T05C0.0320
%
T01
X-004250Y-004250
X-003250Y-004250
X-006250Y+002750
X-006340Y-000980
X+000000Y+003340
X+000010Y+006260
X+000000Y+004620
X-004484Y+000240
X-005100Y+000915
X-002158Y-004345
X-001108Y-004314
X+000313Y-004800
X-001750Y-005250
X-006750Y+002090
X+010361Y+004148
X-006023Y-001463
X-006023Y-002709
X-006896Y-004459
X-004560Y-000930
X+009190Y+003423
X+001063Y-002306
X-001106Y-001850
X-006070Y+000630
X-004375Y-000204
X-003393Y+005573
X-003484Y+006584
X-009287Y-000538
X-004204Y-000656
X-008500Y-001424
X-007810Y-002280
X-006113Y-004991
X+002725Y-003425
X+005330Y-003560
X+009634Y+000071
X-002154Y+007181
T02
X-010944Y+006850
X+012283Y+006850
X-010944Y-006535
X+012283Y-006535
T03
X-007279Y+006866
X-005279Y+006866
X-006893Y-005558
X-007693Y-005558
X-008493Y-005558
T04
X-011080Y+001020
X-010080Y+001020
X-011080Y+000020
X-010080Y+000020
X-011080Y-000980
X-010080Y-000980
X-000236Y-006653
X-001236Y-006653
X-002236Y-006653
X-003236Y-006653
X-004236Y-006653
X-005236Y-006653
X-010562Y-002484
X-010562Y-003484
X-010562Y-004484
X-010564Y+004627
X-010564Y+003627
X-010564Y+002627
X+009170Y-001363
X+012731Y-001356
X+012751Y+004543
X+009440Y+005980
X+009440Y+006980
X+009170Y+004541
X+010880Y+000850
X+010880Y+001850
X+007342Y-001661
X+006342Y-001661
X+005342Y-001661
X+004342Y-001661
X+003342Y-001661
X+002342Y-001661
X+006287Y+006669
X+005287Y+006669
X+004287Y+006669
X+003287Y+006669
X+002287Y+006669
X+001287Y+006669
X-002480Y-001060
T05
X+000149Y-000399
X-000637Y-000005
X+000149Y+000388
X-000637Y+000782
M30
